<?xml version="1.0" encoding="iso-8859-1"?>
<!-- Uploaded to: SVG Repo, www.svgrepo.com, Generator: SVG Repo Mixer Tools -->
<svg fill="#ffffff" height="800px" width="800px" version="1.1" id="Layer_1" xmlns="http://www.w3.org/2000/svg" xmlns:xlink="http://www.w3.org/1999/xlink" 
	 viewBox="0 0 350 350" xml:space="preserve">
<g id="XMLID_517_">
	<path id="XMLID_518_" d="M314.393,300.909c-7.352,7.353-10.957,10.604-19.387,10.604c-0.004-0.001-0.007-0.001-0.008,0
		c-8.428,0-12.034-3.252-19.388-10.604c-8.185-8.184-19.393-19.393-40.604-19.394c-0.001,0,0,0-0.001,0h-0.001h-0.001
		c-21.215,0-32.424,11.21-40.608,19.395c-7.352,7.353-10.957,10.604-19.388,10.604c-0.004-0.001-0.007-0.001-0.008,0
		c-8.429,0-12.035-3.252-19.389-10.604c-8.184-8.184-19.393-19.393-40.604-19.394l0,0l0,0h-0.001c-0.001,0,0,0-0.001,0h-0.001
		c-21.212,0.001-32.421,11.21-40.605,19.395c-7.353,7.353-10.958,10.604-19.389,10.604c-0.004-0.001-0.007-0.001-0.008,0
		c-8.426,0-12.033-3.251-19.386-10.603l-0.005-0.005c-5.856-5.855-15.352-5.854-21.211,0.004
		c-5.858,5.858-5.854,15.358,0.004,21.215c8.184,8.183,19.391,19.389,40.594,19.389c0.005,0.001,0.01,0.001,0.016,0
		c21.205-0.001,32.415-11.208,40.599-19.391c7.354-7.355,10.961-10.606,19.393-10.607c8.432,0.001,12.037,3.253,19.393,10.607
		c8.184,8.185,19.392,19.392,40.598,19.392c0.007,0.001,0.01,0.001,0.016,0c21.205-0.001,32.415-11.208,40.598-19.391
		c7.354-7.355,10.962-10.607,19.395-10.607l0,0c0.001,0,0.001,0,0.001,0c8.431,0.001,12.037,3.252,19.393,10.607
		c8.184,8.185,19.392,19.392,40.597,19.392c0.005,0.001,0.01,0.001,0.016,0c21.205-0.001,32.415-11.209,40.598-19.393
		c5.857-5.857,5.857-15.355-0.002-21.213C329.748,295.05,320.25,295.05,314.393,300.909z"/>
	<path id="XMLID_519_" d="M335,221.512h-5v-45c0-5.479-2.947-10.259-7.334-12.876l16.192-39.093c1.522-3.676,1.522-7.806,0-11.48
		c-1.522-3.676-4.442-6.596-8.118-8.118c-10.412-4.313-21.379-6.332-32.316-6.104c-1.267-4.301-2.761-8.542-4.48-12.694
		c-12.848-31.018-37.005-55.177-68.023-68.025c-31.017-12.847-65.182-12.847-96.2,0c-7.653,3.171-11.288,11.945-8.118,19.599
		l15.021,36.266c-0.137-0.045-0.271-0.1-0.407-0.144c-20.508-6.794-42.803-5.978-62.782,2.299c-4.335,1.796-7.377,5.391-8.627,9.56
		c-14.892-3.429-30.794-2.296-45.547,3.813c-3.675,1.522-6.596,4.442-8.118,8.118c-1.523,3.675-1.523,7.805,0,11.48l14.716,35.528
		C22.301,147.383,20,151.674,20,156.512v65h-5c-8.284,0-15,6.716-15,15c0,8.284,6.716,15,15,15h20h280h20c8.284,0,15-6.716,15-15
		C350,228.228,343.284,221.512,335,221.512z M291.074,161.512h-38.01c0.213-0.571,0.429-1.141,0.663-1.706
		c5.126-12.377,14.766-22.018,27.144-27.145c7.606-3.15,15.684-4.36,23.662-3.644L291.074,161.512z M214.439,45.839
		c23.614,9.781,42.006,28.174,51.787,51.79c1.021,2.464,1.938,4.968,2.75,7.501c-19.58,8.236-34.831,23.556-42.965,43.194
		c-1.779,4.295-3.168,8.702-4.175,13.188H205.35L155.503,41.172C175.045,36.442,195.511,37.999,214.439,45.839z M158.652,127.172
		l5.941,14.341h-47.845l-12.988-31.354c-0.027-0.067-0.055-0.135-0.083-0.201l-4.164-10.054
		C122.394,96.771,145.955,107.115,158.652,127.172z M77.303,124.677l6.973,16.835h-27.24L45.58,113.858
		C56.981,113.242,68.387,117.017,77.303,124.677z M50,221.512v-50h56.625c0.035,0,0.07,0.004,0.105,0.004
		c0.027,0,0.054-0.004,0.08-0.004h70.209l4.448,10.74c0.146,0.353,0.305,0.698,0.476,1.034c0.137,0.271,0.286,0.533,0.438,0.792
		c0.036,0.061,0.066,0.126,0.104,0.186c0.19,0.317,0.393,0.625,0.604,0.924v0.001c0.633,0.893,1.355,1.7,2.146,2.42
		c0.015,0.013,0.028,0.027,0.043,0.041c0.231,0.208,0.471,0.406,0.714,0.599c0.045,0.036,0.088,0.074,0.133,0.109
		c0.214,0.166,0.436,0.321,0.657,0.475c0.081,0.056,0.158,0.116,0.24,0.171c0.191,0.126,0.388,0.242,0.585,0.36
		c0.119,0.071,0.235,0.148,0.356,0.216c0.169,0.095,0.342,0.18,0.514,0.268c0.154,0.079,0.307,0.162,0.464,0.236
		c0.153,0.072,0.311,0.135,0.466,0.201c0.181,0.078,0.358,0.158,0.541,0.229c0.156,0.061,0.316,0.11,0.475,0.165
		c0.185,0.064,0.367,0.132,0.555,0.189c0.196,0.059,0.396,0.107,0.595,0.159c0.151,0.039,0.301,0.084,0.453,0.118
		c0.311,0.07,0.625,0.127,0.94,0.178c0.042,0.007,0.082,0.017,0.124,0.023c0.738,0.111,1.488,0.171,2.242,0.171
		c0.027,0,0.054-0.004,0.08-0.004H300v30H50z"/>
</g>
</svg>